<svg width="395" height="189" viewBox="0 0 395 189" fill="none" xmlns="http://www.w3.org/2000/svg">
<path d="M308.552 28.3948H211.693V26.3975H167.773V28.3948H70.5155C68.7777 28.3948 67.1111 29.0855 65.8823 30.3149C64.6535 31.5444 63.9632 33.2119 63.9632 34.9506V167.65C63.9632 169.389 64.6535 171.056 65.8823 172.286C67.1111 173.515 68.7777 174.206 70.5155 174.206H308.552C310.289 174.206 311.956 173.515 313.185 172.286C314.414 171.056 315.104 169.389 315.104 167.65V34.9498C315.104 33.2113 314.413 31.5439 313.185 30.3147C311.956 29.0854 310.289 28.3948 308.552 28.3948Z" fill="#3F2305"/>
<path d="M306.319 39.9797H72.7478V171.809H306.319V39.9797Z" fill="#E6E6E6"/>
<path d="M296.493 46.9514H82.6533V160.901H296.493V46.9514Z" fill="white"/>
<path d="M189.334 36.3849C190.657 36.3849 191.73 35.3117 191.73 33.9879C191.73 32.6641 190.657 31.5909 189.334 31.5909C188.011 31.5909 186.938 32.6641 186.938 33.9879C186.938 35.3117 188.011 36.3849 189.334 36.3849Z" fill="#F2EAD3"/>
<path d="M321.661 169.412H298.866V167.768C298.866 167.682 298.832 167.599 298.771 167.538C298.71 167.477 298.627 167.442 298.541 167.442H290.725C290.639 167.442 290.556 167.477 290.495 167.538C290.434 167.599 290.399 167.682 290.399 167.768V169.412H285.515V167.768C285.515 167.682 285.481 167.599 285.42 167.538C285.359 167.477 285.276 167.442 285.189 167.442H277.374C277.287 167.442 277.205 167.477 277.143 167.538C277.082 167.599 277.048 167.682 277.048 167.768V169.412H272.164V167.768C272.164 167.682 272.129 167.599 272.068 167.538C272.007 167.477 271.924 167.442 271.838 167.442H264.022C263.936 167.442 263.853 167.477 263.792 167.538C263.731 167.599 263.697 167.682 263.697 167.768V169.412H258.812V167.768C258.812 167.682 258.778 167.599 258.717 167.538C258.656 167.477 258.573 167.442 258.486 167.442H250.671C250.585 167.442 250.502 167.477 250.441 167.538C250.38 167.599 250.346 167.682 250.346 167.768V169.412H245.461V167.768C245.461 167.682 245.426 167.599 245.365 167.538C245.304 167.477 245.221 167.442 245.135 167.442H237.32C237.233 167.442 237.151 167.477 237.089 167.538C237.028 167.599 236.994 167.682 236.994 167.768V169.412H232.109V167.768C232.109 167.682 232.075 167.599 232.014 167.538C231.953 167.477 231.87 167.442 231.783 167.442H223.97C223.883 167.442 223.801 167.477 223.739 167.538C223.678 167.599 223.644 167.682 223.644 167.768V169.412H218.758V167.768C218.758 167.682 218.723 167.599 218.662 167.538C218.601 167.477 218.518 167.442 218.432 167.442H157.211C157.125 167.442 157.042 167.477 156.981 167.538C156.92 167.599 156.885 167.682 156.885 167.768V169.412H152.001V167.768C152.001 167.682 151.967 167.599 151.906 167.538C151.844 167.477 151.762 167.442 151.675 167.442H143.86C143.773 167.442 143.69 167.477 143.629 167.538C143.568 167.599 143.534 167.682 143.534 167.768V169.412H138.649V167.768C138.649 167.682 138.615 167.599 138.554 167.538C138.493 167.477 138.41 167.442 138.324 167.442H130.509C130.422 167.442 130.339 167.477 130.278 167.538C130.217 167.599 130.183 167.682 130.183 167.768V169.412H125.298V167.768C125.298 167.682 125.264 167.599 125.203 167.538C125.142 167.477 125.059 167.442 124.972 167.442H117.157C117.071 167.442 116.988 167.477 116.927 167.538C116.866 167.599 116.831 167.682 116.831 167.768V169.412H111.948V167.768C111.948 167.682 111.913 167.599 111.852 167.538C111.791 167.477 111.708 167.442 111.622 167.442H103.806C103.719 167.442 103.636 167.477 103.575 167.538C103.514 167.599 103.48 167.682 103.48 167.768V169.412H98.5955V167.768C98.5955 167.682 98.5612 167.599 98.5001 167.538C98.439 167.477 98.3561 167.442 98.2697 167.442H90.4543C90.3679 167.442 90.285 167.477 90.2239 167.538C90.1628 167.599 90.1285 167.682 90.1285 167.768V169.412H85.244V167.768C85.244 167.682 85.2097 167.599 85.1486 167.538C85.0876 167.477 85.0047 167.442 84.9183 167.442H77.1013C77.0149 167.442 76.9321 167.477 76.871 167.538C76.8099 167.599 76.7756 167.682 76.7756 167.768V169.412H61.7976C59.7248 169.412 57.7369 170.236 56.2712 171.702C54.8055 173.169 53.9821 175.158 53.9821 177.231V180.767C53.9821 182.841 54.8055 184.83 56.2712 186.296C57.7369 187.763 59.7248 188.587 61.7976 188.587H321.661C323.734 188.587 325.722 187.763 327.188 186.297C328.653 184.83 329.477 182.841 329.477 180.767V177.232C329.477 175.158 328.654 173.169 327.188 171.702C325.722 170.236 323.734 169.412 321.661 169.412V169.412Z" fill="#3F2305"/>
<path d="M236.854 54.9434H142.293V154.398H236.854V54.9434Z" fill="#E6E6E6"/>
<path d="M395 188.255H0V189H395V188.255Z" fill="#E6E6E6"/>
<path d="M356.638 162.231C361.99 167.977 362.267 176.423 362.267 176.423C362.267 176.423 353.866 175.552 348.514 169.806C343.162 164.06 342.885 155.614 342.885 155.614C342.885 155.614 351.286 156.485 356.638 162.231Z" fill="#F2EAD3"/>
<path d="M373.487 171.2C367.744 176.555 359.303 176.832 359.303 176.832C359.303 176.832 360.173 168.427 365.916 163.072C371.659 157.717 380.1 157.44 380.1 157.44C380.1 157.44 379.23 165.845 373.487 171.2Z" fill="#F2EAD3"/>
<path d="M372.059 188.255H350.936C350.531 188.255 350.134 188.141 349.79 187.926C349.446 187.711 349.17 187.403 348.993 187.038L344.394 177.58C344.234 177.25 344.159 176.885 344.179 176.519C344.198 176.153 344.31 175.798 344.504 175.487C344.699 175.176 344.969 174.92 345.29 174.742C345.61 174.565 345.971 174.472 346.337 174.472H376.659C377.025 174.472 377.386 174.565 377.706 174.743C378.027 174.92 378.297 175.176 378.491 175.487C378.686 175.798 378.798 176.153 378.817 176.519C378.836 176.885 378.762 177.25 378.602 177.58L374.003 187.039C373.826 187.403 373.549 187.711 373.206 187.926C372.862 188.141 372.465 188.255 372.06 188.255L372.059 188.255Z" fill="#E5E5E5"/>
<path d="M22.6937 162.231C28.0457 167.977 28.3224 176.423 28.3224 176.423C28.3224 176.423 19.9216 175.552 14.5696 169.806C9.21753 164.06 8.94092 155.614 8.94092 155.614C8.94092 155.614 17.3417 156.485 22.6937 162.231Z" fill="#E5E5E5"/>
<path d="M34.7645 188.255H13.6411C13.2358 188.255 12.8386 188.141 12.495 187.926C12.1514 187.711 11.8753 187.403 11.6981 187.038L7.09922 177.58C6.93863 177.25 6.86449 176.885 6.88379 176.519C6.90308 176.153 7.01518 175.798 7.20952 175.487C7.40387 175.176 7.67407 174.92 7.99468 174.742C8.3153 174.565 8.67579 174.472 9.04221 174.472H39.3638C39.7302 174.472 40.0907 174.565 40.4113 174.742C40.7319 174.92 41.0021 175.176 41.1964 175.487C41.3908 175.798 41.5029 176.153 41.5222 176.519C41.5415 176.885 41.4673 177.25 41.3067 177.58L36.7078 187.039C36.5307 187.403 36.2545 187.711 35.9109 187.926C35.5673 188.141 35.1702 188.255 34.7649 188.255L34.7645 188.255Z" fill="#E5E5E5"/>
<path d="M200.983 83.0972C207.924 83.0972 213.551 77.4675 213.551 70.523C213.551 63.5785 207.924 57.9489 200.983 57.9489C194.042 57.9489 188.416 63.5785 188.416 70.523C188.416 77.4675 194.042 83.0972 200.983 83.0972Z" fill="#A0616A"/>
<path d="M172.067 154.603L180.183 103.484C180.615 100.766 181.62 98.1712 183.132 95.8721C184.643 93.5731 186.627 91.6225 188.951 90.1502C191.275 88.6779 193.885 87.7176 196.609 87.3332C199.332 86.9488 202.106 87.1491 204.747 87.9209C209.363 89.2567 213.315 92.2663 215.832 96.3619C218.349 100.457 219.25 105.345 218.358 110.069L209.87 155.721L172.067 154.603Z" fill="#F2EAD3"/>
<path d="M204.453 163.75C205.081 163.335 205.61 162.788 206.003 162.146C206.396 161.505 206.644 160.785 206.73 160.037C206.815 159.289 206.735 158.532 206.496 157.818C206.257 157.105 205.865 156.452 205.346 155.907L213.736 139.651L204.288 140.66L197.77 155.942C196.915 156.875 196.431 158.088 196.41 159.353C196.389 160.618 196.831 161.847 197.654 162.808C198.476 163.77 199.622 164.396 200.875 164.569C202.127 164.743 203.4 164.451 204.453 163.75L204.453 163.75Z" fill="#A0616A"/>
<path d="M206.25 153.039C205.785 152.974 205.352 152.768 205.008 152.45L201.798 149.482C201.451 149.16 201.212 148.739 201.112 148.277C201.012 147.814 201.057 147.332 201.24 146.895L207.655 131.681L206.745 101.619C207.011 99.6687 208.04 97.904 209.606 96.7131C211.173 95.5221 213.148 95.0025 215.097 95.2686C217.046 95.5346 218.81 96.5645 220 98.1317C221.19 99.6989 221.71 101.675 221.444 103.625L223 122.523C223.473 128.258 221.848 133.97 218.427 138.596L208.422 152.129C208.23 152.389 207.985 152.605 207.703 152.764C207.421 152.924 207.11 153.021 206.788 153.052C206.608 153.069 206.428 153.065 206.25 153.039Z" fill="#F2EAD3"/>
<path d="M128.611 63.6723C128.748 64.4123 129.045 65.1133 129.482 65.7259C129.919 66.3384 130.485 66.8477 131.14 67.2178C131.795 67.5879 132.523 67.8098 133.273 67.8678C134.023 67.9259 134.777 67.8188 135.481 67.554L147.171 81.6215L149.926 72.523L138.403 60.559C137.877 59.4088 136.949 58.4908 135.793 57.9784C134.637 57.4661 133.334 57.3947 132.129 57.7777C130.924 58.1608 129.902 58.9718 129.253 60.0578C128.605 61.1437 128.377 62.4294 128.611 63.6723Z" fill="#A0616A"/>
<path d="M137.768 69.5032C138.01 69.1013 138.368 68.7824 138.795 68.5891L142.778 66.7889C143.21 66.595 143.691 66.5384 144.156 66.6268C144.62 66.7152 145.047 66.9444 145.378 67.2832L156.879 79.1258L184.902 90.0081C185.74 90.5055 186.472 91.1634 187.056 91.944C187.64 92.7246 188.064 93.6127 188.305 94.5575C188.546 95.5023 188.598 96.4853 188.459 97.4504C188.32 98.4154 187.992 99.3436 187.494 100.182C186.997 101.02 186.339 101.752 185.558 102.336C184.778 102.919 183.89 103.343 182.945 103.584C182.001 103.824 181.018 103.876 180.054 103.736C179.089 103.596 178.162 103.267 177.325 102.769L159.325 96.8343C153.862 95.034 149.239 91.3095 146.315 86.3536L137.761 71.86C137.597 71.5812 137.493 71.271 137.456 70.9495C137.419 70.628 137.451 70.3024 137.548 69.9938C137.602 69.8223 137.677 69.6577 137.769 69.5036L137.768 69.5032Z" fill="#F2EAD3"/>
<path opacity="0.1" d="M211.177 114.124L210.665 130.507L201.239 146.896L209.11 128.633L211.177 114.124Z" fill="black"/>
<path d="M192.472 64.2206C193.769 65.7556 195.962 66.1884 197.986 66.3661C202.096 66.7267 208.072 66.1426 212.088 65.214C212.374 67.9939 211.593 70.991 213.229 73.2777C213.996 70.5093 214.442 67.6617 214.559 64.7912C214.608 63.562 214.589 62.2866 214.089 61.1565C213.589 60.0263 212.498 59.0672 211.243 59.0571C212.176 58.349 213.268 57.8816 214.425 57.696L210.449 55.6969L211.47 54.648L204.271 54.2073L206.356 52.882C203.218 52.451 200.043 52.3511 196.885 52.584C195.418 52.692 193.884 52.8988 192.696 53.7491C191.507 54.5995 190.82 56.2895 191.558 57.5381C190.634 57.6899 189.765 58.0751 189.031 58.6573C188.298 59.2394 187.725 59.9993 187.368 60.8648C186.838 62.2088 186.886 63.7017 187.05 65.1339C187.321 67.4245 187.853 69.6766 188.636 71.8462" fill="#2F2E41"/>
<path d="M246.197 32.7205L131.682 59.1728C131.119 59.302 130.529 59.2027 130.039 58.8968C129.55 58.5909 129.202 58.1032 129.072 57.5409L122.513 29.1191C122.384 28.5565 122.483 27.9655 122.789 27.4759C123.095 26.9863 123.582 26.6381 124.144 26.5075L238.66 0.055301C239.223 -0.0738957 239.813 0.02536 240.302 0.331293C240.792 0.637225 241.14 1.12485 241.27 1.68722L247.829 30.109C247.958 30.6716 247.858 31.2626 247.553 31.7522C247.247 32.2417 246.76 32.59 246.197 32.7205Z" fill="white"/>
<path d="M246.197 32.7205L131.682 59.1728C131.119 59.302 130.529 59.2027 130.039 58.8968C129.55 58.5909 129.202 58.1032 129.072 57.5409L122.513 29.1191C122.384 28.5565 122.483 27.9655 122.789 27.4759C123.095 26.9863 123.582 26.6381 124.144 26.5075L238.66 0.055301C239.223 -0.0738957 239.813 0.02536 240.302 0.331293C240.792 0.637225 241.14 1.12485 241.27 1.68722L247.829 30.109C247.958 30.6716 247.858 31.2626 247.553 31.7522C247.247 32.2417 246.76 32.59 246.197 32.7205ZM124.34 27.3564C124.003 27.4347 123.711 27.6437 123.527 27.9375C123.344 28.2313 123.284 28.5859 123.362 28.9236L129.92 57.3453C129.998 57.6828 130.207 57.9755 130.5 58.1591C130.794 58.3427 131.149 58.4022 131.486 58.3246L246.002 31.8723C246.339 31.7941 246.632 31.5851 246.815 31.2913C246.999 30.9975 247.058 30.6429 246.98 30.3052L240.422 1.88311C240.344 1.54559 240.135 1.2529 239.842 1.06929C239.548 0.885691 239.193 0.826184 238.856 0.903833L124.34 27.3564Z" fill="#E6E6E6"/>
<path d="M164.076 27.2685C163.887 27.3118 163.708 27.392 163.55 27.5044C163.392 27.6169 163.257 27.7594 163.154 27.9239C163.051 28.0884 162.981 28.2716 162.949 28.4631C162.916 28.6545 162.922 28.8505 162.965 29.0398C163.009 29.2291 163.089 29.408 163.201 29.5663C163.314 29.7245 163.456 29.8591 163.621 29.9623C163.785 30.0654 163.968 30.1352 164.16 30.1675C164.351 30.1998 164.547 30.1941 164.736 30.1507L164.741 30.1496L232.614 14.4714C232.995 14.3827 233.326 14.1462 233.533 13.8139C233.74 13.4815 233.807 13.0805 233.719 12.6988C233.631 12.3172 233.395 11.9861 233.063 11.7782C232.732 11.5704 232.331 11.5028 231.949 11.5904L164.076 27.2685Z" fill="#E6E6E6"/>
<path d="M166.071 35.9121C165.881 35.9554 165.703 36.0356 165.544 36.1481C165.386 36.2605 165.252 36.403 165.148 36.5675C165.045 36.732 164.975 36.9152 164.943 37.1067C164.911 37.2982 164.916 37.4941 164.96 37.6834C165.003 37.8727 165.083 38.0516 165.196 38.2099C165.308 38.3682 165.451 38.5027 165.615 38.6059C165.779 38.7091 165.963 38.7788 166.154 38.8111C166.345 38.8435 166.541 38.8378 166.73 38.7943L166.735 38.7932L195.941 32.0468C196.323 31.9592 196.655 31.7234 196.863 31.3913C197.071 31.0591 197.139 30.6579 197.051 30.2758C196.964 29.8937 196.728 29.562 196.396 29.3536C196.065 29.1452 195.664 29.0773 195.282 29.1646L195.277 29.1658L166.071 35.9121Z" fill="#E6E6E6"/>
<path d="M145.521 46.4256C150.418 46.4256 154.387 42.4542 154.387 37.5552C154.387 32.6561 150.418 28.6847 145.521 28.6847C140.625 28.6847 136.655 32.6561 136.655 37.5552C136.655 42.4542 140.625 46.4256 145.521 46.4256Z" fill="#F2EAD3"/>
<path d="M145.272 42.6722C144.982 42.7397 144.677 42.7109 144.405 42.5903L144.388 42.5827L140.821 40.9624C140.655 40.8873 140.506 40.7803 140.382 40.6475C140.257 40.5146 140.16 40.3586 140.096 40.1882C140.033 40.0179 140.003 39.8366 140.009 39.6548C140.015 39.473 140.057 39.2941 140.132 39.1285C140.208 38.9629 140.315 38.8137 140.448 38.6896C140.581 38.5655 140.737 38.4688 140.907 38.405C141.077 38.3413 141.259 38.3118 141.44 38.3182C141.622 38.3246 141.801 38.3668 141.966 38.4423L144.278 39.4952L147.521 32.3658C147.672 32.032 147.951 31.7722 148.294 31.6436C148.637 31.515 149.017 31.5281 149.351 31.6799L149.332 31.7265L149.352 31.6797C149.686 31.832 149.945 32.1104 150.073 32.4539C150.202 32.7973 150.189 33.1777 150.037 33.5116L146.223 41.8985C146.135 42.0917 146.003 42.2619 145.838 42.396C145.674 42.53 145.48 42.6243 145.273 42.6715L145.272 42.6722Z" fill="white"/>
</svg>
