<svg width="170" height="128" viewBox="0 0 170 128" fill="none" xmlns="http://www.w3.org/2000/svg">
<path d="M0 77.6748C0 77.8283 0.12315 77.9515 0.276505 77.9515H169.724C169.877 77.9515 170 77.8283 170 77.6748C170 77.5214 169.877 77.3982 169.724 77.3982H0.276505C0.12315 77.3982 0 77.5214 0 77.6748Z" fill="#3F3D56"/>
<path d="M108.502 18.9706L109.391 30.3501L122.276 24.9653L115.007 13.3914L108.502 18.9706Z" fill="#FFB6B6"/>
<path d="M108.116 22.4375C113.42 22.4375 117.72 18.135 117.72 12.8277C117.72 7.5203 113.42 3.21783 108.116 3.21783C102.811 3.21783 98.5107 7.5203 98.5107 12.8277C98.5107 18.135 102.811 22.4375 108.116 22.4375Z" fill="#FFB6B6"/>
<path d="M90.1463 102.426L91.7728 117.022L80.3878 115.444L84.1054 101.961L90.1463 102.426Z" fill="#FFB6B6"/>
<path d="M134.524 104.518L136.151 119.114L124.766 117.536L128.483 104.053L134.524 104.518Z" fill="#FFB6B6"/>
<path d="M107.456 60.4658C107.301 60.4658 94.8756 61.09 86.6665 61.5033C82.7811 61.6989 79.8235 65.0636 80.125 68.9443L83.0599 106.727L91.4243 106.959L91.6283 76.506L108.153 77.4359L107.456 60.4658Z" fill="#3F2305"/>
<path d="M143.934 60.2334C143.934 60.2334 146.025 76.2735 144.399 77.9008C142.772 79.528 91.7726 76.6222 91.7726 76.6222C91.7726 76.6222 102.961 60.4572 104.976 59.9966C106.991 59.536 139.055 57.9087 139.055 57.9087L143.934 60.2334Z" fill="#DDD1B0"/>
<path d="M77.865 40.0384C75.9228 37.3207 75.75 34.1152 77.4789 32.8788C79.2078 31.6424 82.1831 32.8434 84.1256 35.5623C84.9165 36.6378 85.4384 37.8871 85.6477 39.2057L93.7315 50.8247L89.1311 54.0114L80.819 42.6591C79.6393 42.0341 78.6263 41.1355 77.865 40.0384Z" fill="#FFB6B6"/>
<path d="M108.037 26.1771L119.887 21.2953L142.192 55.7003C142.192 55.7003 126.625 59.1873 121.281 59.8847C115.937 60.5821 109.896 57.7925 109.896 57.7925L108.037 26.1771Z" fill="#DFD7BF"/>
<path d="M122.442 31.9887L118.144 18.5734L123.72 22.8063C123.72 22.8063 139.52 33.2673 139.52 37.6841C139.52 42.101 144.399 55.584 144.399 55.584C144.399 55.584 149.859 60.1171 148 64.3015C146.142 68.4859 150.44 67.9047 150.905 70.9268C151.369 73.9489 144.283 78.017 144.283 78.017C144.283 78.017 142.54 60.9308 136.964 60.9308C131.388 60.9308 122.442 31.9887 122.442 31.9887Z" fill="#EFE5C9"/>
<path d="M108.87 25.834L103.041 28.153C103.041 28.153 103.971 44.4257 104.9 45.8205C105.83 47.2153 109.082 54.6542 109.082 54.6542V57.0786C109.082 57.0786 102.577 59.071 102.809 60.2334C103.041 61.3957 118.144 64.6502 118.144 64.6502C118.144 64.6502 115.123 55.3516 113.265 52.3295C111.406 49.3074 108.87 25.834 108.87 25.834Z" fill="#EFE5C9"/>
<path d="M105.133 28.153C105.133 28.153 98.3947 27.2232 97.2329 35.127C96.0712 43.0309 96.8094 44.077 96.8094 44.077L94.9095 48.6101L88.6362 41.6361L82.5952 45.588C82.5952 45.588 93.5154 63.2554 97.93 62.7905C102.345 62.3256 108.85 49.5399 108.85 49.5399L105.133 28.153Z" fill="#EFE5C9"/>
<path d="M138.785 62.7995L135.338 111.608L126.392 111.26C126.392 111.26 124.417 65.1151 124.417 64.4177C124.417 63.7203 125.347 59.7684 131.155 59.536C136.964 59.3035 138.785 62.7995 138.785 62.7995Z" fill="#3F2305"/>
<path d="M125.811 112.538C125.811 112.538 130.458 111.143 131.155 112.073C131.852 113.003 135.802 113.468 135.802 113.468L136.964 124.859C136.964 124.859 133.711 127.184 133.246 127.649C132.782 128.113 120.467 128.578 120.235 125.789C120.003 122.999 123.488 119.512 123.488 119.512L125.811 112.538Z" fill="#3F2305"/>
<path d="M91.6566 109.284C91.6566 109.284 93.0506 108.121 93.5153 111.376C93.98 114.63 95.6064 119.977 93.283 120.675C90.9595 121.372 67.725 121.604 67.725 119.512V117.42L69.8161 115.793L73.9992 115.126C73.9992 115.126 82.1304 107.656 83.0598 107.656C83.9892 107.656 87.0097 110.679 87.0097 110.679L91.6566 109.284Z" fill="#3F2305"/>
<path d="M117.563 18.0408C117.563 18.0408 112.916 12.4616 111.057 12.9265C109.199 13.3914 110.36 14.0888 110.36 14.0888L105.713 8.97458C105.713 8.97458 101.996 7.57979 98.5107 11.9966C98.5107 11.9966 96.4196 8.27718 98.5107 6.18499C100.602 4.09279 101.299 4.32526 101.764 3.16293C102.228 2.0006 105.481 1.07074 105.481 1.07074C105.481 1.07074 105.294 -0.602288 106.317 0.234223C107.34 1.07073 109.894 1.07074 109.894 1.07074C109.894 1.07074 109.908 0.140871 110.948 1.07074C111.987 2.0006 113.148 1.53567 113.148 1.53567C113.148 1.53567 113.148 3.14463 113.962 3.15378C114.775 3.16293 116.169 2.0006 116.401 2.93046C116.634 3.86033 118.26 4.32526 118.492 7.11485C118.725 9.90445 117.563 18.0408 117.563 18.0408Z" fill="#2F2E41"/>
<path d="M79.6931 41.5763L53.1509 59.9009C52.235 60.5332 50.9756 60.3022 50.3436 59.3858L42.871 48.5508C42.239 47.6344 42.47 46.3744 43.3859 45.7421L69.9281 27.4175C70.844 26.7851 72.1034 27.0162 72.7354 27.9326L80.208 38.7676C80.84 39.684 80.609 40.9439 79.6931 41.5763Z" fill="white"/>
<path d="M72.6865 27.9663L80.159 38.8012C80.7739 39.6927 80.5503 40.9123 79.6593 41.5275L66.6331 50.5207C63.1977 49.5815 60.063 47.4719 57.8824 44.3101C56.454 42.239 55.593 39.9462 55.2646 37.613L69.9616 27.4663C70.8527 26.8511 72.0716 27.0748 72.6865 27.9663Z" fill="#E6E6E6"/>
<path d="M52.008 60.4898C51.2926 60.4898 50.5886 60.1502 50.1522 59.518L42.6795 48.6829C42.3387 48.1884 42.2108 47.5902 42.3194 46.9979C42.4279 46.4056 42.7599 45.8917 43.254 45.5507L69.7961 27.2261C70.8178 26.5212 72.2218 26.7791 72.9266 27.8004L80.3993 38.6355C80.7401 39.13 80.8681 39.7281 80.7594 40.3204C80.6509 40.9125 80.319 41.4267 79.825 41.7677L53.2828 60.0923C52.8934 60.3609 52.4485 60.4898 52.008 60.4898ZM71.0715 27.2933C70.722 27.2933 70.369 27.3956 70.0602 27.6088L43.5179 45.9334C43.1258 46.2038 42.8626 46.6118 42.7764 47.0819C42.6902 47.5519 42.7916 48.0268 43.0621 48.4186L50.5348 59.2537C51.0939 60.0642 52.2082 60.2692 53.0187 59.7096L79.5611 41.3849C79.953 41.1145 80.2162 40.7066 80.3024 40.2364C80.3886 39.7665 80.2872 39.2916 80.0168 38.8998L72.544 28.0647C72.198 27.5629 71.6392 27.2933 71.0715 27.2933Z" fill="#3F3D56"/>
<path d="M52.1998 55.0799C51.5271 55.5443 51.3575 56.4697 51.8217 57.1427C52.2859 57.8157 53.2108 57.9855 53.8835 57.521L56.6161 55.6344C57.2888 55.17 57.4585 54.2446 56.9943 53.5716C56.5301 52.8985 55.6052 52.7288 54.9325 53.1932L52.1998 55.0799Z" fill="#DFD7BF"/>
<path d="M54.0522 39.9635C52.9908 40.6963 52.7232 42.1563 53.4556 43.2182C54.1879 44.2801 55.6472 44.5479 56.7085 43.8151L60.9594 40.8803C62.0208 40.1476 62.2884 38.6876 61.5561 37.6257C60.8237 36.5638 59.3644 36.296 58.303 37.0287L54.0522 39.9635Z" fill="#DFD7BF"/>
<path d="M79.0577 43.1942H46.8098C45.697 43.1942 44.7916 42.2885 44.7916 41.1751V28.0109C44.7916 26.8975 45.697 25.9917 46.8098 25.9917H79.0577C80.1705 25.9917 81.0759 26.8975 81.0759 28.0109V41.1751C81.0759 42.2885 80.1705 43.1942 79.0577 43.1942Z" fill="white"/>
<path d="M81.0164 28.011V41.175C81.0164 42.2582 80.1401 43.1349 79.0575 43.1349H63.2311C60.9367 40.4098 59.5541 36.8922 59.5541 33.0507C59.5541 30.5344 60.147 28.158 61.2011 26.0511H79.0575C80.1401 26.0511 81.0164 26.9278 81.0164 28.011Z" fill="#E6E6E6"/>
<path d="M79.0576 43.4267H46.8097C45.5688 43.4267 44.5591 42.4167 44.5591 41.1751V28.0108C44.5591 26.7693 45.5688 25.7593 46.8097 25.7593H79.0576C80.2985 25.7593 81.3082 26.7693 81.3082 28.0108V41.1751C81.3082 42.4167 80.2985 43.4267 79.0576 43.4267ZM46.8097 26.2242C45.825 26.2242 45.0238 27.0256 45.0238 28.0108V41.1751C45.0238 42.1604 45.825 42.9618 46.8097 42.9618H79.0576C80.0423 42.9618 80.8435 42.1604 80.8435 41.1751V28.0108C80.8435 27.0256 80.0423 26.2242 79.0576 26.2242H46.8097Z" fill="#3F3D56"/>
<path d="M48.7637 38.686C47.9464 38.686 47.2815 39.3513 47.2815 40.169C47.2815 40.9867 47.9464 41.652 48.7637 41.652H52.0839C52.9012 41.652 53.5661 40.9867 53.5661 40.169C53.5661 39.3513 52.9012 38.686 52.0839 38.686H48.7637Z" fill="#DFD7BF"/>
<path d="M58.8691 27.2968C57.5796 27.2968 56.5305 28.3465 56.5305 29.6366C56.5305 30.9268 57.5796 31.9764 58.8691 31.9764H64.0337C65.3233 31.9764 66.3723 30.9268 66.3723 29.6366C66.3723 28.3465 65.3233 27.2968 64.0337 27.2968H58.8691Z" fill="#DFD7BF"/>
<path d="M106.01 88.7576H73.7617C72.6489 88.7576 71.7435 87.8518 71.7435 86.7384V73.5743C71.7435 72.4609 72.6489 71.5551 73.7617 71.5551H106.01C107.122 71.5551 108.028 72.4609 108.028 73.5743V86.7384C108.028 87.8518 107.122 88.7576 106.01 88.7576Z" fill="white"/>
<path d="M107.968 73.5743V86.7384C107.968 87.8215 107.092 88.6983 106.01 88.6983H90.1831C87.8887 85.9732 86.5061 82.4556 86.5061 78.6141C86.5061 76.0978 87.099 73.7214 88.1532 71.6144H106.01C107.092 71.6144 107.968 72.4912 107.968 73.5743Z" fill="#E6E6E6"/>
<path d="M106.01 88.9901H73.7617C72.5208 88.9901 71.5111 87.9801 71.5111 86.7385V73.5742C71.5111 72.3326 72.5208 71.3226 73.7617 71.3226H106.01C107.251 71.3226 108.26 72.3326 108.26 73.5742V86.7385C108.26 87.9801 107.251 88.9901 106.01 88.9901ZM73.7617 71.7876C72.777 71.7876 71.9758 72.5889 71.9758 73.5742V86.7385C71.9758 87.7238 72.777 88.5251 73.7617 88.5251H106.01C106.994 88.5251 107.796 87.7238 107.796 86.7385V73.5742C107.796 72.5889 106.994 71.7876 106.01 71.7876H73.7617Z" fill="#3F3D56"/>
<path d="M75.7156 84.2494C74.8983 84.2494 74.2334 84.9146 74.2334 85.7323C74.2334 86.5501 74.8983 87.2153 75.7156 87.2153H79.0358C79.8531 87.2153 80.518 86.5501 80.518 85.7323C80.518 84.9146 79.8531 84.2494 79.0358 84.2494H75.7156Z" fill="#DFD7BF"/>
<path d="M85.821 72.8601C84.5315 72.8601 83.4824 73.9098 83.4824 75.2C83.4824 76.4902 84.5315 77.5397 85.821 77.5397H90.9857C92.2752 77.5397 93.3242 76.4902 93.3242 75.2C93.3242 73.9098 92.2752 72.8601 90.9857 72.8601H85.821Z" fill="#DFD7BF"/>
<path d="M108.197 76.9502C105.235 78.4932 102.039 78.2149 101.058 76.3289C100.077 74.4429 101.682 71.6638 104.645 70.1206C105.82 69.488 107.13 69.1461 108.464 69.1235L121.096 62.7444L123.604 67.7485L111.205 74.3912C110.421 75.4723 109.39 76.3498 108.197 76.9502Z" fill="#FFB6B6"/>
<path d="M122.559 22.5738C122.559 22.5738 135.57 21.8764 138.358 28.8504C141.146 35.8244 143.47 58.6061 143.47 58.6061L115.123 74.0358L110.244 66.5099L129.297 51.6321L122.559 22.5738Z" fill="#EFE5C9"/>
</svg>
