<svg width="20" height="20" viewBox="0 0 20 20" fill="none" xmlns="http://www.w3.org/2000/svg">
<path d="M10 20C15.5228 20 20 15.5228 20 10C20 4.47715 15.5228 0 10 0C4.47715 0 0 4.47715 0 10C0 15.5228 4.47715 20 10 20Z" fill="url(#paint0_linear_87_269)"/>
<path d="M13.7241 13.0583L14.1683 10.2358H11.3894V8.40505C11.3894 7.6327 11.7769 6.87941 13.0216 6.87941H14.2857V4.47647C14.2857 4.47647 13.1389 4.28577 12.0431 4.28577C9.75344 4.28577 8.25837 5.63787 8.25837 8.08462V10.2358H5.71429V13.0583H8.25837V19.8818C8.76908 19.9601 9.29158 20.0001 9.82387 20.0001C10.3562 20.0001 10.8787 19.9601 11.3894 19.8818V13.0583H13.7241Z" fill="white"/>
<defs>
<linearGradient id="paint0_linear_87_269" x1="10" y1="0" x2="10" y2="19.9407" gradientUnits="userSpaceOnUse">
<stop stop-color="#18ACFE"/>
<stop offset="1" stop-color="#0163E0"/>
</linearGradient>
</defs>
</svg>
