<svg width="20" height="20" viewBox="0 0 20 20" fill="none" xmlns="http://www.w3.org/2000/svg">
<path d="M5.07148 19.9293C3.88207 19.8752 3.23595 19.6772 2.80619 19.5096C2.23675 19.2879 1.83077 19.024 1.40339 18.5972C0.976016 18.1704 0.711505 17.7644 0.49098 17.195C0.323357 16.7652 0.12542 16.1191 0.0713288 14.9297C0.0118881 13.644 0 13.2582 0 10.0009C0 6.74354 0.0130769 6.35837 0.0707344 5.07148C0.124825 3.88207 0.323952 3.23714 0.490385 2.80619C0.712099 2.23675 0.97661 1.83077 1.4028 1.4028C1.82958 0.976016 2.23556 0.71091 2.8056 0.490385C3.23536 0.322763 3.88147 0.124825 5.07088 0.0707344C6.35718 0.0118881 6.74354 0 9.9997 0C13.2571 0 13.6422 0.0130769 14.9291 0.0707344C16.1185 0.124825 16.7635 0.323952 17.1944 0.490385C17.7638 0.71091 18.1698 0.976016 18.5972 1.4028C19.0246 1.82958 19.2879 2.23616 19.5096 2.8056C19.6772 3.23536 19.8752 3.88147 19.9293 5.07088C19.9881 6.35777 20 6.74295 20 10.0003C20 13.2565 19.9881 13.6428 19.9293 14.9297C19.8752 16.1191 19.676 16.7652 19.5096 17.195C19.2879 17.7644 19.024 18.1704 18.5972 18.5972C18.1704 19.024 17.7638 19.2879 17.1944 19.5096C16.7646 19.6772 16.1185 19.8752 14.9291 19.9293C13.6434 19.9881 13.2571 20 9.9997 20C6.74354 20 6.35718 19.9887 5.07148 19.9293Z" fill="url(#paint0_radial_87_265)"/>
<path d="M5.07148 19.9293C3.88207 19.8752 3.23595 19.6772 2.80619 19.5096C2.23675 19.2879 1.83077 19.024 1.40339 18.5972C0.976016 18.1704 0.711505 17.7644 0.49098 17.195C0.323357 16.7652 0.12542 16.1191 0.0713288 14.9297C0.0118881 13.644 0 13.2582 0 10.0009C0 6.74354 0.0130769 6.35837 0.0707344 5.07148C0.124825 3.88207 0.323952 3.23714 0.490385 2.80619C0.712099 2.23675 0.97661 1.83077 1.4028 1.4028C1.82958 0.976016 2.23556 0.71091 2.8056 0.490385C3.23536 0.322763 3.88147 0.124825 5.07088 0.0707344C6.35718 0.0118881 6.74354 0 9.9997 0C13.2571 0 13.6422 0.0130769 14.9291 0.0707344C16.1185 0.124825 16.7635 0.323952 17.1944 0.490385C17.7638 0.71091 18.1698 0.976016 18.5972 1.4028C19.0246 1.82958 19.2879 2.23616 19.5096 2.8056C19.6772 3.23536 19.8752 3.88147 19.9293 5.07088C19.9881 6.35777 20 6.74295 20 10.0003C20 13.2565 19.9881 13.6428 19.9293 14.9297C19.8752 16.1191 19.676 16.7652 19.5096 17.195C19.2879 17.7644 19.024 18.1704 18.5972 18.5972C18.1704 19.024 17.7638 19.2879 17.1944 19.5096C16.7646 19.6772 16.1185 19.8752 14.9291 19.9293C13.6434 19.9881 13.2571 20 9.9997 20C6.74354 20 6.35718 19.9887 5.07148 19.9293Z" fill="url(#paint1_radial_87_265)"/>
<path d="M7.54448 10.0426C7.54448 8.67484 8.65299 7.56574 10.0208 7.56574C11.3886 7.56574 12.4977 8.67484 12.4977 10.0426C12.4977 11.4104 11.3886 12.5195 10.0208 12.5195C8.65299 12.5195 7.54448 11.4104 7.54448 10.0426ZM6.20552 10.0426C6.20552 12.1498 7.91361 13.8579 10.0208 13.8579C12.128 13.8579 13.836 12.1498 13.836 10.0426C13.836 7.93546 12.128 6.22737 10.0208 6.22737C7.91361 6.22737 6.20558 7.93534 6.20558 10.0426M13.0955 6.0761C13.0955 6.25244 13.1477 6.42485 13.2456 6.57151C13.3435 6.71817 13.4827 6.83251 13.6456 6.90006C13.8085 6.96761 13.9878 6.98533 14.1607 6.951C14.3337 6.91667 14.4926 6.83181 14.6173 6.70717C14.7421 6.58253 14.8271 6.42369 14.8615 6.25075C14.896 6.07781 14.8784 5.89853 14.811 5.73558C14.7436 5.57263 14.6294 5.43334 14.4828 5.33531C14.3362 5.23728 14.1638 5.18491 13.9875 5.18484H13.9871C13.7508 5.18495 13.5241 5.27888 13.3569 5.44599C13.1897 5.61309 13.0957 5.83972 13.0955 6.0761ZM7.01903 16.0906C6.29462 16.0576 5.90089 15.9369 5.63923 15.835C5.29234 15.7 5.04483 15.5391 4.78459 15.2792C4.52436 15.0194 4.36328 14.7721 4.22882 14.4252C4.12682 14.1637 4.00616 13.7698 3.97323 13.0454C3.93721 12.2622 3.93002 12.0269 3.93002 10.0428C3.93002 8.05856 3.9378 7.82395 3.97323 7.04011C4.00622 6.3157 4.12777 5.92262 4.22882 5.66031C4.36387 5.31341 4.52472 5.0659 4.78459 4.80567C5.04447 4.54544 5.29174 4.38436 5.63923 4.2499C5.90077 4.1479 6.29462 4.02724 7.01903 3.99431C7.80222 3.95829 8.03748 3.95109 10.0208 3.95109C12.0041 3.95109 12.2396 3.95876 13.0234 3.99443C13.7478 4.02742 14.1409 4.14897 14.4032 4.25002C14.7501 4.38448 14.9976 4.54592 15.2579 4.80579C15.5181 5.06567 15.6786 5.31353 15.8136 5.66043C15.9156 5.92197 16.0363 6.31582 16.0692 7.04022C16.1052 7.82407 16.1124 8.05868 16.1124 10.0429C16.1124 12.0271 16.1052 12.2617 16.0692 13.0455C16.0362 13.7699 15.915 14.1637 15.8136 14.4253C15.6786 14.7722 15.5177 15.0197 15.2579 15.2794C14.998 15.539 14.7501 15.7001 14.4032 15.8351C14.1417 15.9371 13.7478 16.0578 13.0234 16.0907C12.2402 16.1267 12.005 16.1339 10.0208 16.1339C8.03659 16.1339 7.80198 16.1267 7.01903 16.0907M6.95751 2.65755C6.16653 2.69357 5.62604 2.81899 5.15402 3.00266C4.66547 3.19233 4.25135 3.4468 3.83782 3.85967C3.42429 4.27255 3.17048 4.68673 2.98081 5.17587C2.79714 5.64818 2.67172 6.18838 2.63569 6.97936C2.59908 7.77158 2.5907 8.02486 2.5907 10.0426C2.5907 12.0604 2.59908 12.3137 2.63569 13.1059C2.67172 13.8969 2.79714 14.4371 2.98081 14.9094C3.17048 15.3979 3.42435 15.8129 3.83782 16.2256C4.25129 16.6383 4.66488 16.8924 5.15402 17.0826C5.62693 17.2663 6.16653 17.3917 6.95751 17.4277C7.75015 17.4637 8.00301 17.4727 10.0208 17.4727C12.0386 17.4727 12.2918 17.4643 13.0841 17.4277C13.8751 17.3917 14.4152 17.2663 14.8875 17.0826C15.3761 16.8924 15.7902 16.6385 16.2037 16.2256C16.6173 15.8127 16.8705 15.3979 17.0608 14.9094C17.2444 14.4371 17.3704 13.8969 17.4059 13.1059C17.4419 12.3131 17.4503 12.0604 17.4503 10.0426C17.4503 8.02486 17.4419 7.77158 17.4059 6.97936C17.3698 6.18832 17.2444 5.64789 17.0608 5.17587C16.8705 4.68733 16.6166 4.2732 16.2037 3.85967C15.7909 3.44614 15.3761 3.19233 14.8881 3.00266C14.4152 2.81899 13.875 2.69297 13.0847 2.65755C12.2923 2.62135 12.0391 2.61255 10.0217 2.61255C8.0042 2.61255 7.75045 2.62093 6.9578 2.65755" fill="white"/>
<defs>
<radialGradient id="paint0_radial_87_265" cx="0" cy="0" r="1" gradientUnits="userSpaceOnUse" gradientTransform="translate(1.29438 19.5619) scale(25.3926)">
<stop offset="0.09" stop-color="#FA8F21"/>
<stop offset="0.78" stop-color="#D82D7E"/>
</radialGradient>
<radialGradient id="paint1_radial_87_265" cx="0" cy="0" r="1" gradientUnits="userSpaceOnUse" gradientTransform="translate(13.8533 18.9197) scale(22.3457)">
<stop offset="0.64" stop-color="#8C3AAA" stop-opacity="0"/>
<stop offset="1" stop-color="#8C3AAA"/>
</radialGradient>
</defs>
</svg>
