<svg width="122" height="146" viewBox="0 0 122 146" fill="none" xmlns="http://www.w3.org/2000/svg">
<path d="M113.236 12.3593H17.0015C13.4713 12.3593 10.6007 15.2015 10.6007 18.6966V83.9886C10.6007 87.4838 13.4713 90.3259 17.0015 90.3259H113.236C116.766 90.3259 119.636 87.4838 119.636 83.9886V18.6966C119.636 15.2014 116.766 12.3593 113.236 12.3593Z" fill="#F2EAD3"/>
<path d="M102.795 17.3885H6.56082C3.03063 17.3885 0.160019 20.2306 0.160019 23.7258V89.0178C0.160019 92.5129 3.03063 95.3551 6.56082 95.3551H102.795C106.325 95.3551 109.196 92.5129 109.196 89.0178V23.7258C109.196 20.2306 106.325 17.3885 102.795 17.3885ZM108.523 69.8006C108.523 83.5459 97.2682 94.6887 83.3851 94.6887H6.56082C3.39748 94.6887 0.833079 92.1497 0.833079 89.0178V23.7258C0.833079 20.5938 3.39747 18.0549 6.5608 18.0549H102.795C105.958 18.0549 108.523 20.5938 108.523 23.7258V69.8006Z" fill="#3F2305"/>
<path d="M13.906 81.2054L13.3365 80.8504C13.7067 80.2678 14.0887 79.7031 14.4716 79.1719L15.0194 79.5591C14.644 80.0797 14.2695 80.6335 13.906 81.2054Z" fill="white"/>
<path d="M17.6172 76.4564L17.1354 75.9911C18.1624 74.9491 19.2433 74.0545 20.3479 73.3323L20.7189 73.8884C19.6543 74.5844 18.6107 75.4484 17.6172 76.4564ZM34.4085 72.2502C33.6048 72.2502 32.8726 72.1484 32.3244 72.0596L32.4332 71.402C32.9886 71.4919 33.6576 71.5839 34.4085 71.5839C35.0717 71.5839 35.7236 71.5118 36.4013 71.3633L36.5465 72.014C35.8205 72.173 35.1212 72.2502 34.4085 72.2502ZM24.3375 72.1621L24.135 71.5266C24.858 71.3008 25.607 71.1316 26.3611 71.0234C27.0087 70.9307 27.6278 70.8856 28.2537 70.8856H28.2951V71.552H28.2537C27.6604 71.552 27.0729 71.5948 26.4575 71.6829C25.7393 71.7859 25.0258 71.9471 24.3375 72.1621ZM40.3803 70.2363L39.9501 69.7238C40.8788 68.96 41.5445 68.0364 42.2494 67.0585L42.5306 66.6695L43.0768 67.0589L42.7973 67.4455C42.0664 68.4596 41.3759 69.4175 40.3803 70.2363ZM45.7779 64.1263L45.3638 63.6008C46.271 62.8999 47.2961 62.332 48.4973 61.8646C48.7018 61.7848 48.8974 61.7137 49.085 61.6505L49.3023 62.281C49.1238 62.3414 48.9381 62.4089 48.7436 62.4847C47.6034 62.9284 46.6334 63.4653 45.7779 64.1263ZM53.9034 61.8117C53.677 61.8117 53.4622 61.8096 53.2558 61.8073L53.2637 61.1409C53.4747 61.1433 53.6949 61.1438 53.9279 61.1453C54.7199 61.1453 55.823 61.123 57.3361 60.9496L57.4137 61.6114C55.8506 61.7907 54.7301 61.8094 53.9034 61.8117ZM61.5079 60.939L61.3745 60.286C62.5834 60.0439 63.9898 59.7558 65.3819 59.4001L65.5502 60.0454C64.1421 60.4051 62.7253 60.6953 61.5079 60.939ZM69.5149 58.7821L69.2632 58.164C70.6128 57.6253 71.7845 57.0178 72.8457 56.3066L73.223 56.8584C72.122 57.5964 70.909 58.2257 69.5149 58.7821ZM76.3154 54.0204L75.7692 53.6309C75.957 53.3729 76.1193 53.1212 76.2762 52.8779C76.7396 52.1594 77.219 51.4164 78.3602 50.5044L78.44 50.4411L78.8571 50.964L78.783 51.0227C77.727 51.8667 77.298 52.5321 76.8435 53.2366C76.6816 53.4876 76.514 53.7473 76.3154 54.0204ZM82.3533 49.0226L82.1078 48.4021C83.3074 47.9365 84.6622 47.5618 86.1347 47.2883L86.2589 47.9433C84.8279 48.2091 83.5138 48.5722 82.3533 49.0226Z" fill="white"/>
<path d="M90.373 47.4543L90.3309 46.7889C90.9849 46.7484 91.6687 46.7217 92.3633 46.7093L92.3754 47.376C91.6907 47.3881 91.017 47.4144 90.373 47.4543Z" fill="white"/>
<path d="M21.4112 24.6092H11.9682C11.4937 24.6092 11.1066 24.9923 11.1066 25.4621C11.1066 25.9353 11.4937 26.3184 11.9682 26.3184H21.4112C21.8857 26.3184 22.2727 25.9353 22.2727 25.4621C22.2727 24.9923 21.8857 24.6092 21.4112 24.6092Z" fill="white"/>
<path d="M37.2281 24.6092H27.7851C27.3106 24.6092 26.9236 24.9924 26.9236 25.4622C26.9236 25.9353 27.3106 26.3185 27.7851 26.3185H37.2281C37.7026 26.3185 38.0896 25.9353 38.0896 25.4622C38.0896 24.9924 37.7026 24.6092 37.2281 24.6092Z" fill="white"/>
<path d="M53.0449 24.6092H43.6018C43.1273 24.6092 42.7403 24.9924 42.7403 25.4622C42.7403 25.9353 43.1273 26.3185 43.6018 26.3185H53.0449C53.5194 26.3185 53.9064 25.9353 53.9064 25.4622C53.9064 24.9924 53.5194 24.6092 53.0449 24.6092Z" fill="white"/>
<path d="M96.9122 80.6947H11.0971V81.3614H96.9122V80.6947Z" fill="#E6E6E6"/>
<path d="M92.3792 32.0489C86.2712 32.2055 81.7146 33.9848 78.8271 37.33C77.7603 38.5695 77.3262 39.5457 76.8685 40.5786C76.4142 41.5981 75.9498 42.6477 74.8695 44.0171V42.8843C75.5392 41.9113 75.8993 41.0984 76.2527 40.3087C76.7306 39.2292 77.1849 38.2096 78.3156 36.9002C81.3309 33.4017 86.0558 31.5458 92.359 31.3825L92.3792 32.0489Z" fill="white"/>
<path d="M76.8685 40.5786C76.4142 41.5981 75.9498 42.6477 74.8695 44.0171C74.7416 44.1803 74.6036 44.3503 74.4556 44.5269C70.5585 49.1149 65.3524 50.6209 61.166 51.8337C60.9035 51.9104 60.6477 51.9803 60.3987 52.047C56.6767 53.0465 54.6373 53.0099 53.1196 52.9866C51.5951 52.9599 50.5889 52.9432 48.7884 53.9628C45.4871 55.8253 44.1342 58.5508 42.8251 61.1864C41.4756 63.8985 40.2036 66.4608 36.9594 67.6636C34.708 68.4966 33.1263 68.0834 31.4538 67.6503C30.0168 67.2738 27.4269 58.0064 25.1338 56.655C20.3988 57.6379 17.5215 72.958 13.9307 81.1611L13.3115 80.8946C16.9965 72.4849 20.032 57.0348 24.9924 56.0019C27.2034 55.5421 30.1144 66.6107 31.6254 67.0039C33.1936 67.4137 34.671 67.7969 36.7238 67.0372C39.7189 65.931 40.8766 63.5953 42.2194 60.8932C43.5116 58.2943 44.9755 55.3489 48.4519 53.383C50.4139 52.2735 51.5547 52.2935 53.1297 52.3202C54.6306 52.3468 56.6565 52.3801 60.3987 51.3573C60.5872 51.304 60.779 51.2506 60.9775 51.194C65.0765 50.0078 70.1749 48.5318 73.9373 44.1004C74.3075 43.6639 74.6137 43.2607 74.8695 42.8842C75.5392 41.9113 75.8993 41.0983 76.2526 40.3087C76.7305 39.2291 77.3261 39.5457 76.8685 40.5786Z" fill="white"/>
<path d="M40.9814 116.806C40.715 115.887 40.2588 115.104 39.7157 114.545L37.7424 105.639L33.4411 106.682L35.9059 115.604C35.7438 116.359 35.7763 117.261 36.0427 118.179C36.6513 120.277 38.2502 121.671 39.614 121.291C40.9777 120.912 41.5899 118.904 40.9814 116.806Z" fill="#FFB6B6"/>
<path d="M40.3861 58.384C40.3861 58.384 33.5935 58.2463 31.8663 63.1438C30.2942 67.6015 28.4305 79.8484 29.438 80.5561L33.7263 110.705L39.8413 109.873L38.2719 73.6989L40.3861 58.384Z" fill="#DFD7BF"/>
<path d="M71.8407 114.347L70.6359 146H54.6508L54.0047 131.816L51.1643 146H34.0316L36.1686 121.617L38.3762 116.489L39.8704 113.014L71.8407 114.347Z" fill="#3F2305"/>
<path d="M59.0526 52.3735L47.9471 51.7072L44.2453 56.3718L36.1685 59.3705L39.8704 95.0219L38.1877 116.346C38.1877 116.346 61.7448 135.005 71.8407 114.347L69.1485 89.3577L69.8215 60.3701L62.0813 57.0382L59.0526 52.3735Z" fill="#DFD7BF"/>
<path d="M80.4324 44.2641C80.5529 45.4192 80.3999 46.5055 80.0475 47.3765L81.8975 58.3091L76.6174 59.0285L75.3093 47.861C74.7846 47.0797 74.4106 46.0473 74.2901 44.8921C74.0148 42.2532 75.1667 39.9733 76.8628 39.7999C78.559 39.6264 80.1571 41.6251 80.4324 44.2641Z" fill="#FFB6B6"/>
<path d="M71.2356 61.6218C69.4154 58.5416 64.9003 58.2512 62.878 61.2053C62.3252 62.0129 62.4792 62.9207 62.3472 64.0114C61.7869 68.6415 70.7485 82.3235 76.9494 83.8988C77.7631 84.1055 78.2266 84.9745 79.0479 85.1493C81.4808 85.667 83.7461 83.7551 83.6148 81.2947L81.9304 49.7389L74.8541 52.1285L75.307 68.5117L71.2356 61.6218Z" fill="#DFD7BF"/>
<path d="M54.6523 50.8449C60.0549 50.8449 64.4345 46.5087 64.4345 41.1598C64.4345 35.8109 60.0549 31.4747 54.6523 31.4747C49.2498 31.4747 44.8702 35.8109 44.8702 41.1598C44.8702 46.5087 49.2498 50.8449 54.6523 50.8449Z" fill="#FFB6B6"/>
<path d="M63.7641 34.048C63.68 34.0681 65.0518 32.7442 65.1102 32.7153C66.4564 32.0489 65.0732 38.5628 64.1007 38.3795C61.7079 37.9297 60.6748 37.0368 59.746 39.2658C59.4868 39.8855 59.3253 40.5852 58.8205 41.0284C58.1273 41.6315 56.9763 41.5815 56.411 42.3012C55.9566 42.8809 56.0879 43.7339 56.4244 44.3869C56.7609 45.0433 57.2725 45.5998 57.5787 46.2695C57.922 47.0225 56.4581 49.4181 55.8994 50.7642V50.7675L55.8961 50.7754C55.7477 51.1285 55.3949 50.1114 55.0225 50.0099C54.5769 49.8884 53.9203 50.9302 53.2106 50.7409C53.2072 50.7409 53.2038 50.7375 53.2005 50.7375C52.524 50.551 51.7702 50.351 51.0231 50.1511H51.0197C48.9164 49.5847 48.3847 50.3977 48.2838 50.3744L46.978 49.0216C46.5299 48.6986 46.5806 47.6557 46.2646 47.3757C46.0062 47.1466 45.3619 47.6759 45.1721 47.4557C44.2411 46.3762 44.0269 45.2962 43.4781 43.1641C42.9767 41.215 41.9368 35.3808 44.0738 35.1176C46.0896 34.8677 44.6156 32.0889 46.6449 32.1922C46.5237 31.6857 46.7492 31.1426 47.116 30.7694C47.4794 30.3929 47.9641 30.1597 48.452 29.9598C50.8582 28.9869 50.4577 28.1506 52.9952 28.717C53.2476 28.3672 56.9124 28.6004 57.3701 28.717C57.4037 28.7237 56.236 29.0002 58.0431 28.717C57.9758 29.1268 59.12 29.3068 59.0527 29.7166C59.3051 29.38 62.0175 31.3125 62.0815 31.7157C62.1656 32.2188 61.3983 31.9623 61.9098 32.0389C62.2127 32.0856 62.731 32.6953 62.6805 32.9985C62.8992 32.7053 63.118 32.4154 63.3401 32.1222C63.3805 32.1255 63.4175 32.1322 63.4579 32.1389C64.4809 32.3321 63.3081 35.6433 63.3502 34.6111C63.4276 32.7153 64.7838 33.8248 63.7641 34.048Z" fill="#2F2E41"/>
<path d="M101.24 85.5964C101.315 85.7802 101.576 85.7802 101.651 85.5964C102.176 84.3138 102.924 82.8774 103.738 81.7798C103.868 81.604 103.689 81.3692 103.482 81.4433L101.737 82.0681V71.3773H101.154V82.0682L99.4086 81.4433C99.2015 81.3691 99.0219 81.6039 99.1522 81.7797C99.966 82.8774 100.714 84.3138 101.24 85.5964Z" fill="#3F2305"/>
<path d="M112.679 96.6041C112.622 96.7945 112.826 96.9546 113.001 96.8571C114.218 96.1762 115.706 95.5121 117.032 95.1535C117.245 95.0961 117.252 94.8016 117.043 94.7322L115.285 94.1475L122 85.7755L121.543 85.416L114.827 93.7879L113.853 92.2241C113.738 92.0386 113.45 92.1119 113.441 92.3297C113.389 93.6904 113.073 95.2759 112.679 96.6041Z" fill="#3F2305"/>
<path d="M107.216 103.739H95.8678C95.1632 103.739 94.59 103.171 94.59 102.473C93.0896 98.1314 93.1192 93.8768 94.59 89.7045C94.59 89.0069 95.1632 88.4394 95.8678 88.4394H107.216C107.921 88.4394 108.494 89.0069 108.494 89.7045V102.473C108.494 103.171 107.921 103.739 107.216 103.739Z" fill="#E6E6E6"/>
<path d="M98.2991 88.8163C96.4608 88.8163 94.9706 90.2918 94.9706 92.1118V102.202C94.9706 102.843 95.4947 103.362 96.1413 103.362H102.417C105.563 103.362 108.113 100.837 108.113 97.722V89.9754C108.113 89.3353 107.589 88.8163 106.942 88.8163H98.2991Z" fill="white"/>
<path d="M104.185 92.5273H98.8716C98.7377 92.5273 98.6287 92.4193 98.6287 92.2867C98.6287 92.154 98.7377 92.0461 98.8716 92.0461H104.185C104.319 92.0461 104.428 92.154 104.428 92.2867C104.428 92.4193 104.319 92.5273 104.185 92.5273Z" fill="#E6E6E6"/>
<path d="M104.185 97.6559H98.8716C98.7377 97.6559 98.6287 97.548 98.6287 97.4153C98.6287 97.2826 98.7377 97.1747 98.8716 97.1747H104.185C104.319 97.1747 104.428 97.2826 104.428 97.4153C104.428 97.548 104.319 97.6559 104.185 97.6559Z" fill="#E6E6E6"/>
<path d="M107.036 95.0933H96.0205C95.8866 95.0933 95.7776 94.9853 95.7776 94.8527C95.7776 94.72 95.8866 94.6121 96.0205 94.6121H107.036C107.17 94.6121 107.279 94.72 107.279 94.8527C107.279 94.9854 107.17 95.0933 107.036 95.0933Z" fill="#E6E6E6"/>
<path d="M107.166 99.7412H102.57C102.436 99.7412 102.327 99.6333 102.327 99.5006C102.327 99.3679 102.436 99.26 102.57 99.26H107.166C107.3 99.26 107.409 99.3679 107.409 99.5006C107.409 99.6333 107.3 99.7412 107.166 99.7412Z" fill="#E6E6E6"/>
<path d="M4.19427 8.23733C6.51069 8.23733 8.38853 6.4173 8.38853 4.17218C8.38853 1.92706 6.51069 0.107025 4.19427 0.107025C1.87784 0.107025 0 1.92706 0 4.17218C0 6.4173 1.87784 8.23733 4.19427 8.23733Z" fill="#DFD7BF"/>
<path d="M37.8178 2.78142H15.2418C14.4673 2.78142 13.8371 2.15752 13.8371 1.39071C13.8371 0.623896 14.4673 0 15.2418 0H37.8178C38.5923 0 39.2225 0.623896 39.2225 1.39071C39.2225 2.15752 38.5923 2.78142 37.8178 2.78142Z" fill="#F2EAD3"/>
<path d="M55.4363 7.48845H15.2418C14.4673 7.48845 13.8371 6.86456 13.8371 6.09774C13.8371 5.33093 14.4673 4.70703 15.2418 4.70703H55.4363C56.2108 4.70703 56.8409 5.33093 56.8409 6.09774C56.8409 6.86456 56.2108 7.48845 55.4363 7.48845Z" fill="#F2EAD3"/>
</svg>
