<svg width="120" height="146" viewBox="0 0 120 146" fill="none" xmlns="http://www.w3.org/2000/svg">
<path d="M22.9709 57.259C22.8321 57.0412 21.9577 55.669 21.3099 55.808C20.0818 56.0714 20.748 61.5327 18.9627 62.0774C18.5709 62.1969 18.0194 62.0924 16.7877 62.423C16.2977 62.5546 16.0436 62.6627 15.9647 62.8804C15.8528 63.1894 16.1913 63.449 16.694 64.2019C17.4479 65.331 17.2161 65.54 17.879 66.3493C18.3712 66.9501 18.7574 67.1505 18.6817 67.4141C18.5746 67.7872 17.732 67.6268 17.5296 68.0545C17.3231 68.491 17.9226 69.2453 18.4412 69.7064C19.4142 70.5717 20.384 70.6552 21.272 70.9389C22.2371 71.2471 23.557 71.9359 24.9233 73.658L35.8421 88.4918C34.9616 88.1568 33.2459 87.4688 30.9055 86.2923C28.9314 85.2994 26.9744 84.1694 25.0885 82.9323C24.2752 82.3991 23.5645 81.9027 22.9261 81.4404L22.9909 81.4744L22.679 80.3416C22.5593 79.8914 22.4809 79.5237 22.6469 79.2279C22.7385 79.0698 22.9113 78.9064 23.1127 78.7173C23.3436 78.501 23.6058 78.2561 23.8612 77.9159C24.0979 77.6099 24.1518 77.337 24.0336 77.1083C23.9935 77.0305 23.9408 76.9753 23.8852 76.9347C23.9487 76.8338 24.021 76.7146 24.0853 76.5714C24.2216 76.2672 24.255 76.0068 24.279 75.813C24.378 75.0337 24.2522 74.5746 23.9039 74.4479C23.7566 74.3946 23.6237 74.419 23.5124 74.4715C23.5041 74.3116 23.4829 74.1235 23.4249 73.9208C23.238 73.27 22.9779 72.94 22.6318 72.9128C22.1482 72.8744 21.9042 73.4108 21.6223 74.0307C21.496 74.3061 21.1644 75.0397 20.9912 75.0403C20.9698 75.0401 20.9087 75.0269 20.8546 75.0149C20.7062 74.9825 20.4825 74.9338 20.1334 74.924C19.9376 74.9185 19.642 74.9099 19.4612 75.1532C19.3002 75.3864 19.3796 75.6344 19.4528 75.8325C19.477 75.8979 19.506 75.9756 19.5351 76.0698C19.6014 76.2846 19.6125 76.4004 19.6234 76.5127C19.6375 76.6587 19.6522 76.8103 19.7564 77.0599C19.7652 77.0801 19.7733 77.099 19.7815 77.1176C19.6835 77.1401 19.5808 77.1875 19.4945 77.2838C19.1698 77.6385 19.4727 78.2258 19.617 78.4596C19.8764 78.8778 20.2051 79.0787 20.4694 79.2404C20.5361 79.2812 20.6016 79.3212 20.6649 79.3645C20.9929 79.5887 21.2649 79.9284 21.4829 80.3654C21.225 80.1684 20.9785 79.9784 20.7471 79.7998C19.9183 79.1598 19.1391 78.5359 18.3794 77.928C17.5982 77.3027 16.8333 76.6907 16.0551 76.0937L16.1042 75.8791L15.9162 75.9886C14.6891 75.052 13.4252 74.1524 12.0062 73.2989C11.948 73.2639 11.8792 73.2229 11.8083 73.1812L11.7407 72.9358C11.6211 72.4856 11.5427 72.1179 11.7087 71.8221C11.8003 71.664 11.9731 71.5007 12.1745 71.3116C12.4053 71.0953 12.6676 70.8503 12.9229 70.5102C13.1597 70.2042 13.2136 69.9313 13.0953 69.7026C13.0552 69.6247 13.0025 69.5696 12.947 69.5289C13.0105 69.428 13.0828 69.3089 13.1471 69.1656C13.2833 68.8614 13.3167 68.6011 13.3408 68.4072C13.4398 67.6279 13.314 67.1688 12.9656 67.0422C12.8184 66.9889 12.6855 67.0132 12.5742 67.0657C12.5659 66.9059 12.5447 66.7177 12.4866 66.5151C12.2998 65.8642 12.0397 65.5343 11.6936 65.5071C11.21 65.4687 10.966 66.0051 10.6841 66.6249C10.5577 66.9003 10.2261 67.6339 10.053 67.6345C10.0315 67.6343 9.97047 67.6211 9.91635 67.6092C9.76801 67.5768 9.54431 67.528 9.19514 67.5183C8.9994 67.5127 8.70383 67.5041 8.52302 67.7474C8.36192 67.9807 8.44139 68.2286 8.51457 68.4268C8.53883 68.4922 8.56779 68.5698 8.59687 68.664C8.66319 68.8788 8.67427 68.9946 8.68519 69.1069C8.69926 69.253 8.71392 69.4046 8.8182 69.6541C8.82703 69.6744 8.83508 69.6933 8.84329 69.7118C8.7453 69.7343 8.6426 69.7818 8.55628 69.8781C8.23154 70.2328 8.53448 70.8201 8.67875 71.0538C8.93816 71.4721 9.26683 71.673 9.53119 71.8346C9.59788 71.8755 9.66339 71.9155 9.72668 71.9587C9.91207 72.0854 10.0788 72.2507 10.2297 72.4463C9.74838 72.2833 9.19261 72.1491 8.5659 72.0915C7.81691 72.0227 7.0581 72.0735 6.3017 72.2389C6.29639 72.1817 6.29119 72.1255 6.28538 72.0632C6.22108 71.3649 6.17403 71.0752 5.93427 70.8037C5.81786 70.6712 5.63956 70.5253 5.12982 70.3587C4.42328 70.1278 3.81811 70.0929 3.649 70.0876C2.80435 70.0634 2.07481 70.0427 1.41246 70.554C1.28608 70.6509 0.902275 70.9444 0.691601 71.4621C0.58376 71.7241 0.564315 71.9367 0.548708 72.1077C0.53224 72.2863 0.521867 72.4045 0.421897 72.57C0.358797 72.6754 0.282885 72.7614 0.222556 72.8306C0.106051 72.9693 -0.112938 73.2231 0.0705958 73.4986C0.114701 73.5653 0.170444 73.6122 0.233799 73.6438C0.20018 73.8776 0.22068 74.1194 0.336043 74.3383C0.439405 74.5353 0.617563 74.6672 1.09755 74.9024C1.83198 75.2628 2.42388 75.4382 2.54143 75.4714C3.30324 75.6882 3.68524 75.7969 4.09473 75.7812C4.96611 75.7463 5.59914 75.4751 5.97611 74.9746C5.99511 74.9502 6.01271 74.9253 6.02953 74.9003C6.29376 74.5072 6.32238 74.0958 6.36804 73.4408C6.37667 73.3143 6.3741 73.1686 6.36306 72.9828C7.07758 72.816 7.7936 72.7593 8.49838 72.824C10.024 72.9643 11.1081 73.6164 11.6287 73.9299C12.9254 74.7098 14.0945 75.5332 15.2281 76.3896L15.0915 76.4692C14.6879 76.6996 14.3535 76.8689 14.0263 76.7828C13.8507 76.734 13.6494 76.6077 13.4161 76.4601C13.149 76.2908 12.8464 76.0984 12.4538 75.9368C12.0989 75.7845 11.8222 75.8014 11.6318 75.9743C11.5669 76.0329 11.5271 76.0981 11.502 76.1623C11.3887 76.1263 11.2555 76.0863 11.1012 76.0602C10.7734 76.0051 10.514 76.0387 10.321 76.0645C9.54489 76.1661 9.13433 76.4046 9.10063 76.775C9.08658 76.9314 9.14378 77.0543 9.22262 77.149C9.07063 77.1976 8.89471 77.2659 8.71409 77.3737C8.13423 77.7202 7.88223 78.0564 7.9438 78.3993C8.02946 78.8786 8.60828 78.9793 9.27721 79.0958C9.57468 79.1486 10.3658 79.2845 10.4103 79.4524C10.4156 79.4733 10.4183 79.5359 10.4205 79.5915C10.4269 79.7437 10.4367 79.9733 10.5159 80.3147C10.5601 80.5062 10.6268 80.7953 10.9072 80.9091C11.1728 81.0064 11.3916 80.8663 11.5641 80.745C11.6209 80.7049 11.6884 80.6571 11.7719 80.6049C11.962 80.4861 12.0709 80.4459 12.1763 80.4069C12.3135 80.3562 12.4559 80.3034 12.67 80.1389C12.6873 80.1252 12.7034 80.1126 12.7192 80.0999C12.7657 80.1894 12.8375 80.277 12.9522 80.3364C13.3764 80.5617 13.8656 80.1186 14.0543 79.9193C14.3916 79.5613 14.5018 79.1913 14.5906 78.8936C14.613 78.8186 14.635 78.7448 14.6606 78.6724C14.822 78.2168 15.1587 77.7954 15.6619 77.4197L15.7707 77.3384L15.8747 76.8834C16.5577 77.4121 17.2341 77.952 17.9228 78.5033C18.6851 79.1138 19.4678 79.74 20.3 80.3827C21.4034 81.2347 22.7761 82.2949 24.688 83.5487C26.5969 84.8003 28.5781 85.9445 30.5775 86.9498C32.3581 87.8451 33.7843 88.4621 34.7628 88.858C31.9114 89.0494 27.967 89.2766 26.1845 89.3088C25.4913 89.3213 24.7771 89.3106 24.268 88.8293C23.7779 88.3659 23.537 87.5222 22.8239 86.6413C22.7406 86.5384 22.5051 86.255 22.2967 86.305C22.1244 86.3465 22.1276 86.5781 21.9672 86.6192C21.7522 86.6743 21.5721 86.3022 21.1271 85.9523C20.8133 85.7056 20.5274 85.5952 20.2814 85.5003C20.2073 85.4718 19.0962 85.0509 18.8922 85.357C18.7389 85.587 19.2303 86.0279 19.0844 86.2223C18.939 86.416 18.4005 86.0457 17.588 86.0763C17.4415 86.0818 16.5181 86.1165 16.3991 86.4758C16.1737 87.1567 19.0365 88.4044 18.7878 89.441C18.7332 89.6684 18.5229 89.9099 18.3292 90.6121C18.2522 90.8914 18.2318 91.0477 18.3155 91.1494C18.4343 91.2937 18.6589 91.2019 19.1721 91.1715C19.9418 91.1259 19.9771 91.3004 20.5641 91.2074C21 91.1383 21.2094 91.0058 21.3164 91.1192C21.468 91.2796 21.1464 91.6484 21.2972 91.8715C21.4511 92.0991 21.9929 92.0214 22.368 91.8991C23.0719 91.6694 23.3925 91.2158 23.7875 90.8602C24.2167 90.4737 24.9344 90.0223 26.1707 89.8462L34.9224 88.9221C35.4341 89.1267 35.8111 89.2667 36.0307 89.348C36.1476 89.3912 36.2227 89.4182 36.2538 89.4324L36.3697 89.2085L36.4996 89.385C36.4593 89.3275 36.4151 89.264 36.3726 89.203L36.4219 89.1077L36.7571 88.9585C36.712 88.8555 36.6626 88.8105 36.5289 88.7524L37.2016 88.6814C36.9982 88.698 36.7533 88.7167 36.4916 88.7363C36.4365 88.7138 36.3688 88.6887 36.2842 88.6574C36.1857 88.6209 36.0521 88.5713 35.8921 88.5107C33.2378 84.6697 27.7783 76.5315 25.7462 73.2006C25.1103 72.1583 24.4907 71.0634 24.7637 69.8613C25.0265 68.704 26.0849 67.5868 26.7792 65.719C26.8603 65.5009 27.0783 64.8908 26.8171 64.6186C26.6013 64.3936 26.2546 64.6046 26.0499 64.3975C25.7754 64.1198 26.1764 63.5148 26.3082 62.5271C26.4011 61.8306 26.313 61.2978 26.2373 60.8397C26.2144 60.7015 25.8603 58.6384 25.2168 58.6008C24.7335 58.5726 24.5056 59.7118 24.0825 59.6631C23.6608 59.6146 23.7403 58.4666 22.9709 57.259Z" fill="#F0F0F0"/>
<path d="M112.416 105.224L34.256 94.3814C31.6402 94.0188 29.4811 92.1375 28.7554 89.589L10.8042 26.5303C10.196 24.393 10.6501 22.18 12.0501 20.458C13.4502 18.736 15.5187 17.8461 17.7276 18.0153L96.4732 24.0704C99.3221 24.2894 101.714 26.3029 102.425 29.0803L119.789 96.9262C120.343 99.0913 119.789 101.38 118.307 103.048C117.03 104.485 115.22 105.287 113.333 105.287C113.029 105.287 112.722 105.266 112.416 105.224Z" fill="#F2EAD3"/>
<path d="M92.6508 91.1166L67.8605 87.6776C67.0308 87.5626 66.346 86.9659 66.1158 86.1576L60.4221 66.1569C60.2292 65.479 60.3732 64.777 60.8173 64.2309C61.2614 63.6847 61.9174 63.4024 62.618 63.4561L87.5943 65.3766C88.4979 65.4461 89.2564 66.0847 89.4819 66.9657L94.9896 88.4848C95.1654 89.1715 94.9896 89.8974 94.5194 90.4265C94.1145 90.8822 93.5404 91.1367 92.9418 91.1367C92.8453 91.1367 92.748 91.13 92.6508 91.1166Z" fill="white"/>
<path d="M90.433 35.6263L44.4136 31.375C43.2534 31.2678 42.3505 30.7326 42.4009 30.1821C42.4514 29.6316 43.4365 29.2711 44.5967 29.3783L90.6162 33.6296C91.7763 33.7368 92.6789 34.2717 92.6284 34.8222C92.5779 35.3727 91.5932 35.7335 90.433 35.6263Z" fill="white"/>
<path d="M92.9424 47.7661L46.923 43.5147C45.7628 43.4076 44.8599 42.8724 44.9103 42.3219C44.9608 41.7714 45.9459 41.4109 47.1061 41.5181L93.1256 45.7694C94.2857 45.8766 95.1883 46.4115 95.1378 46.962C95.0873 47.5125 94.1026 47.8733 92.9424 47.7661Z" fill="white"/>
<path d="M93.8287 58.347L47.8093 54.0956C46.6491 53.9884 45.7461 53.4533 45.7966 52.9028C45.8471 52.3523 46.8322 51.9918 47.9924 52.0989L94.0118 56.3503C95.172 56.4575 96.0746 56.9924 96.0241 57.5429C95.9736 58.0934 94.9889 58.4542 93.8287 58.347Z" fill="white"/>
<path d="M66.0994 53.2363C67.2545 51.9732 68.8401 51.5476 69.6409 52.2855C70.4416 53.0234 70.1543 54.6452 68.9986 55.9086C68.5439 56.4196 67.9738 56.8139 67.3361 57.0585L62.3746 62.3481L59.951 59.9584L65.0995 54.9975C65.2878 54.3387 65.6307 53.7348 66.0994 53.2363Z" fill="#FFB6B6"/>
<path d="M37.8131 54.4134C37.8131 54.4134 40.7123 51.7518 44.1817 54.0756C47.6512 56.3994 55.7305 62.3433 55.7305 62.3433L61.3916 55.2963L65.8527 59.3546C65.8527 59.3546 57.9837 73.2655 52.8998 70.2039C47.8159 67.1423 36.4664 58.4024 36.9817 56.5941C37.497 54.7857 37.8131 54.4134 37.8131 54.4134Z" fill="#DFD7BF"/>
<path d="M59.281 119.337L54.6617 127.976L50.8572 123.355L55.2337 117.419L59.281 119.337Z" fill="#FFB6B6"/>
<path d="M56.2938 126.782L54.3393 137.381C54.3393 137.381 53.0275 141.057 50.9188 137.323C48.8102 133.589 44.992 125.864 47.1871 124.448C49.3822 123.033 52.0333 121.889 52.0333 121.889L56.2938 126.782Z" fill="#3F2305"/>
<path d="M62.0071 128.745L66.8806 137.549L60.7887 138.283L58.1083 131.19L62.0071 128.745Z" fill="#FFB6B6"/>
<path d="M36.1776 49.0164C36.1776 49.0164 35.6902 53.9076 34.9592 54.3967C34.2282 54.8858 43.4916 54.3967 43.4916 54.3967L40.8074 49.0164H36.1776Z" fill="#FFB6B6"/>
<path d="M46.1664 55.8681L42.7568 53.174H34.42L28.8673 57.8208L32.4006 74.3289L30.6949 82.3996L52.3819 83.1333L48.4831 75.7963C48.4831 75.7963 53.1129 70.905 51.6509 67.7257C50.1889 64.5463 46.1664 55.8681 46.1664 55.8681Z" fill="#DFD7BF"/>
<path d="M50.189 81.1768L53.3567 82.8887C53.3567 82.8887 70.414 99.03 68.9519 103.921C67.4899 108.813 57.7429 122.753 57.7429 122.753L53.1131 120.307L59.9359 105.389L46.8993 92.3045L53.8974 104.686L63.8347 130.824L57.9865 133.269L42.8787 102.699C42.8787 102.699 30.4513 94.1387 29.7203 88.7583C28.9892 83.3779 30.695 82.3996 30.695 82.3996L50.189 81.1768Z" fill="#3F2305"/>
<path d="M66.7588 135.47L74.8001 143.052C74.8001 143.052 77.2369 146.231 72.8507 145.987C68.4646 145.742 59.6923 144.764 59.6923 142.074C59.6923 139.383 60.1796 136.449 60.1796 136.449L66.7588 135.47Z" fill="#3F2305"/>
<path d="M38.6143 50.2392C41.7096 50.2392 44.2188 47.7208 44.2188 44.6142C44.2188 41.5076 41.7096 38.9892 38.6143 38.9892C35.519 38.9892 33.0098 41.5076 33.0098 44.6142C33.0098 47.7208 35.519 50.2392 38.6143 50.2392Z" fill="#FFB6B6"/>
<path d="M62.9273 67.0588L58.3084 81.1768C58.1853 81.5531 57.8655 81.8306 57.4767 81.8984L48.6435 83.4403C47.8513 83.5785 47.1968 82.822 47.4443 82.0542L52.057 67.7444C52.1815 67.3582 52.5127 67.0757 52.9126 67.0146L61.7519 65.6646C62.5389 65.5444 63.1757 66.2996 62.9273 67.0588Z" fill="white"/>
<path d="M48.4561 83.701C48.0801 83.701 47.7231 83.5398 47.47 83.2472C47.166 82.8959 47.0697 82.4216 47.2124 81.979L51.8252 67.6691C51.9792 67.1917 52.3818 66.8482 52.876 66.773L61.7152 65.4229C62.1686 65.3534 62.6172 65.5222 62.9139 65.874C63.2104 66.2258 63.3021 66.6973 63.1588 67.1351L58.5399 81.253C58.3885 81.7161 57.9971 82.0557 57.5186 82.1395L48.6853 83.6812C48.6085 83.6946 48.5319 83.701 48.4561 83.701ZM61.9147 65.8967C61.873 65.8967 61.8307 65.8998 61.7885 65.9063L52.9492 67.2564C52.6386 67.3037 52.3856 67.5196 52.289 67.8196L47.6882 82.0923C47.6038 82.3542 47.6313 82.6485 47.7935 82.8705C47.983 83.1301 48.2914 83.2524 48.6017 83.1992L52.1463 82.5806C55.7014 81.9601 58.6258 79.4227 59.7515 75.9819L62.687 67.0093C62.761 66.7832 62.7518 66.5314 62.635 66.3244C62.4814 66.052 62.2074 65.8967 61.9147 65.8967Z" fill="#3F3D56"/>
<path d="M49.4434 78.0572C51.1505 78.1206 52.5015 79.056 52.4611 80.1463C52.4207 81.2366 51.0043 82.0687 49.2967 82.005C48.6142 81.989 47.9454 81.8091 47.3464 81.4805L40.117 81.1201L40.3578 77.7189L47.4592 78.4353C48.081 78.152 48.7614 78.0224 49.4434 78.0572Z" fill="#FFB6B6"/>
<path d="M30.2076 57.2094C30.2076 57.2094 34.1063 57.6985 34.5937 61.8561C35.081 66.0137 35.8121 76.0409 35.8121 76.0409L44.828 75.7963L44.6429 81.8363C44.6429 81.8363 28.9892 84.8452 28.0145 78.9757C27.0398 73.1061 26.3088 58.7673 28.0145 57.9883C29.7202 57.2094 30.2076 57.2094 30.2076 57.2094Z" fill="#DFD7BF"/>
<path d="M80.8357 17.9546L78.8303 17.0012C79.6529 18.1533 80.3616 19.9526 80.7411 21.3844C81.3835 20.0507 82.4192 18.4188 83.4443 17.444L81.3248 17.9912C82.6309 11.567 87.5432 6.95504 93.1685 6.95504L93.2481 6.72299C87.3723 6.72299 82.1692 11.271 80.8357 17.9546Z" fill="#3F3D56"/>
<path d="M90.0659 27.743H77.3948C76.8574 27.743 76.4201 27.3042 76.4201 26.7648C76.4201 26.2254 76.8574 25.7866 77.3948 25.7866H90.0659C90.6033 25.7866 91.0406 26.2254 91.0406 26.7648C91.0406 27.3042 90.6033 27.743 90.0659 27.743Z" fill="#DFD7BF"/>
<path d="M61.2614 69.2414L52.9522 69.9441C52.7427 69.9618 52.5579 69.8052 52.5402 69.5949C52.5226 69.3847 52.6787 69.1993 52.8882 69.1816L61.1974 68.4789C61.4069 68.4612 61.5916 68.6177 61.6093 68.828C61.6269 69.0382 61.4709 69.2237 61.2614 69.2414Z" fill="#3F3D56"/>
<path d="M60.5305 71.6871L52.2212 72.3898C52.0117 72.4075 51.8269 72.2508 51.8093 72.0406C51.7916 71.8304 51.9477 71.6449 52.1572 71.6272L60.4665 70.9245C60.6759 70.9068 60.8607 71.0634 60.8783 71.2736C60.896 71.4839 60.74 71.6693 60.5305 71.6871Z" fill="#3F3D56"/>
<path d="M59.7994 74.1327L51.4902 74.8354C51.2807 74.8531 51.0959 74.6965 51.0782 74.4862C51.0606 74.276 51.2166 74.0906 51.4261 74.0729L59.7354 73.3702C59.9449 73.3525 60.1296 73.509 60.1472 73.7193C60.1649 73.9295 60.0089 74.115 59.7994 74.1327Z" fill="#3F3D56"/>
<path d="M37.1145 46.6368L41.0353 42.1184L40.3818 40.2126L42.4865 42.22L43.573 41.9238C43.573 41.9238 43.5636 38.0545 40.4852 37.8797C37.4068 37.7049 35.1985 38.0303 35.1985 38.0303C35.1985 38.0303 30.7969 39.4147 30.6248 40.4757C30.4527 41.5367 27.9869 42.9465 27.9869 42.9465C27.9869 42.9465 25.8473 44.5438 26.8475 47.2212C27.8477 49.8985 30.1299 53.2404 28.5501 54.8695C26.9703 56.4986 24.7378 57.7526 25.8256 58.3779C26.9133 59.0032 28.8754 56.0714 30.6623 57.2437C32.4492 58.4159 35.4686 63.1239 38.3009 60.6924C41.1332 58.2609 41.6569 55.4446 41.6569 55.4446L37.1368 50.9613C37.1368 50.9613 34.3983 46.2732 37.1145 46.6368Z" fill="#2F2E41"/>
<path d="M99.4254 1.13032H87.1085C86.798 1.13032 86.5453 0.876743 86.5453 0.565101C86.5453 0.253458 86.798 0 87.1085 0H99.4254C99.736 0 99.9885 0.25346 99.9885 0.565103C99.9885 0.876746 99.7359 1.13032 99.4254 1.13032Z" fill="#3F2305"/>
<path d="M106.035 7.16044H80.4991C80.1886 7.16044 79.9359 6.90686 79.9359 6.59522C79.9359 6.28358 80.1886 6.03012 80.4991 6.03012H106.035C106.345 6.03012 106.598 6.28358 106.598 6.59522C106.598 6.90687 106.345 7.16044 106.035 7.16044Z" fill="#3F2305"/>
</svg>
